# xmcd
#
# Track frame offsets:
#       150
#       17862
#       32211
#       49839
#       68088
#       82257
#       97434
#       115146
#       129509
#       147143
#       165392
#       179563
#       194793
#       211654
#       225784
#       243240
#       261579
#       275684
#
# Disc length: 3871 seconds
#
# Revision: 0
# Processed by: cddbd v1.5.2PL0 Copyright (c) Steve Scherf et al.
# Submitted via: WaveLab 4.01
#
DISCID=0e0f1d12
DTITLE=Verschiedene - Top Charts
DYEAR=2010
DGENRE=
TTITLE0=Titel 01
TTITLE1=Titel 02
TTITLE2=Titel 03
TTITLE3=Titel 04
TTITLE4=Titel 05
TTITLE5=Titel 06
TTITLE6=Titel 07
TTITLE7=Titel 08
TTITLE8=Titel 09
TTITLE9=Titel 10
TTITLE10=Titel 11
TTITLE11=Titel 12
TTITLE12=Titel 13
TTITLE13=Titel 14
TTITLE14=Titel 15
TTITLE15=Titel 16
TTITLE16=Titel 17
TTITLE17=Titel 18
EXTD=
EXTT0=
EXTT1=
EXTT2=
EXTT3=
EXTT4=
EXTT5=
EXTT6=
EXTT7=
EXTT8=
EXTT9=
EXTT10=
EXTT11=
EXTT12=
EXTT13=
EXTT14=
EXTT15=
EXTT16=
EXTT17=
PLAYORDER=
